<svg width="49" height="48" viewBox="0 0 49 48" fill="none" xmlns="http://www.w3.org/2000/svg">
<g filter="url(#filter0_d_88_613)">
<path d="M34.9672 2.51822C34.9674 1.85054 34.6911 1.21012 34.1991 0.737865C33.7071 0.265607 33.0398 0.00018914 32.3438 1.00911e-07C31.9992 -9.35015e-05 31.6579 0.0649311 31.3395 0.191361C31.0211 0.317791 30.7317 0.503151 30.488 0.736857C29.9957 1.20885 29.719 1.84911 29.7188 2.51679C29.7188 3.9067 32.343 8.59958 32.343 8.59958C32.343 8.59958 34.9672 3.9067 34.9672 2.51679V2.51822ZM31.0889 2.51822C31.083 2.35683 31.111 2.19596 31.1713 2.04519C31.2316 1.89441 31.3229 1.75683 31.4398 1.64062C31.5567 1.52442 31.6968 1.43198 31.8517 1.36881C32.0066 1.30565 32.1732 1.27304 32.3415 1.27295C32.5098 1.27285 32.6765 1.30527 32.8315 1.36826C32.9865 1.43125 33.1267 1.52353 33.2437 1.6396C33.3607 1.75567 33.4522 1.89315 33.5127 2.04386C33.5732 2.19456 33.6014 2.3554 33.5957 2.51679C33.5847 2.82854 33.4479 3.12401 33.2142 3.34088C32.9805 3.55776 32.6682 3.67908 32.343 3.67926C32.0179 3.67945 31.7053 3.55848 31.4714 3.34188C31.2374 3.12527 31.1003 2.82996 31.0889 2.51822ZM38.0773 23.5592C37.2452 23.5592 36.4472 23.6262 35.7147 23.7346L17.005 17.1172C17.3022 16.8606 17.4687 16.5755 17.4687 16.2761C17.4648 16.1183 17.4199 15.9639 17.3379 15.8271L29.8347 12.6367C30.5183 12.832 31.3549 12.9503 32.2806 12.9503C34.5393 12.9503 36.367 12.2604 36.367 11.4079C36.367 10.5526 34.5393 9.86404 32.2806 9.86404C30.022 9.86404 28.1943 10.5554 28.1943 11.4079C28.1943 11.5077 28.224 11.6032 28.2745 11.6959L15.216 14.5854C14.1211 14.2891 12.9878 14.1437 11.8503 14.1535C8.7491 14.1535 6.23338 15.1043 6.23338 16.2776C6.23338 17.4508 8.7491 18.4016 11.8503 18.4016C12.7032 18.4016 13.4997 18.3232 14.2248 18.1949L32.0414 25.1316C31.7591 25.4053 31.5867 25.7018 31.5867 26.0197C31.5867 26.2906 31.7293 26.5386 31.9374 26.7795L13.4313 33.424C13.1966 33.4168 12.9618 33.4097 12.7225 33.4097C7.90805 33.4097 4 34.8866 4 36.7027C4 38.5231 7.90805 40 12.7225 40C17.537 40 21.4451 38.526 21.4451 36.7041C21.4451 36.3905 21.3217 36.0883 21.1033 35.8018L36.3581 28.369C36.9079 28.426 37.477 28.4617 38.0743 28.4617C41.6599 28.4617 44.568 27.364 44.568 26.0055C44.568 24.6597 41.6599 23.5592 38.0743 23.5592H38.0773Z" fill="white"/>
</g>
<defs>
<filter id="filter0_d_88_613" x="0" y="0" width="48.5679" height="48" filterUnits="userSpaceOnUse" color-interpolation-filters="sRGB">
<feFlood flood-opacity="0" result="BackgroundImageFix"/>
<feColorMatrix in="SourceAlpha" type="matrix" values="0 0 0 0 0 0 0 0 0 0 0 0 0 0 0 0 0 0 127 0" result="hardAlpha"/>
<feOffset dy="4"/>
<feGaussianBlur stdDeviation="2"/>
<feComposite in2="hardAlpha" operator="out"/>
<feColorMatrix type="matrix" values="0 0 0 0 0 0 0 0 0 0 0 0 0 0 0 0 0 0 0.25 0"/>
<feBlend mode="normal" in2="BackgroundImageFix" result="effect1_dropShadow_88_613"/>
<feBlend mode="normal" in="SourceGraphic" in2="effect1_dropShadow_88_613" result="shape"/>
</filter>
</defs>
</svg>
