<svg width="211" height="62" viewBox="0 0 211 62" fill="none" xmlns="http://www.w3.org/2000/svg">
<g filter="url(#filter0_d_363_33)">
<path d="M19.3594 37.9336V41H7.01562V37.9336H19.3594ZM7.66016 12.5625V41H4.06641V12.5625H7.66016ZM17.6992 24.7891V27.8555H7.01562V24.7891H17.6992ZM19.1641 12.5625V15.6484H7.01562V12.5625H19.1641ZM26.9375 24.3789V41H23.4805V19.8672H26.7422L26.9375 24.3789ZM26.0977 29.6328L24.6914 29.5742C24.6784 28.1289 24.8411 26.7943 25.1797 25.5703C25.5312 24.3333 26.026 23.2591 26.6641 22.3477C27.3151 21.4362 28.0898 20.7331 28.9883 20.2383C29.8867 19.7305 30.8828 19.4766 31.9766 19.4766C32.8359 19.4766 33.6172 19.6198 34.3203 19.9062C35.0234 20.1797 35.6224 20.6224 36.1172 21.2344C36.612 21.8464 36.9896 22.6406 37.25 23.6172C37.5234 24.5807 37.6602 25.7591 37.6602 27.1523V41H34.2031V27.1133C34.2031 26.0065 34.0794 25.1211 33.832 24.457C33.5977 23.7799 33.2331 23.2917 32.7383 22.9922C32.2565 22.6797 31.6445 22.5234 30.9023 22.5234C30.2253 22.5234 29.5938 22.7122 29.0078 23.0898C28.4219 23.4674 27.9076 23.9883 27.4648 24.6523C27.0352 25.3164 26.6966 26.0781 26.4492 26.9375C26.2148 27.7839 26.0977 28.6823 26.0977 29.6328ZM53.9297 36.8984V11H57.3672V41H54.2227L53.9297 36.8984ZM42.1133 31.4492V29.4766C42.1133 27.7318 42.2826 26.2344 42.6211 24.9844C42.9596 23.7214 43.4414 22.6862 44.0664 21.8789C44.6914 21.0586 45.4401 20.4531 46.3125 20.0625C47.1849 19.6719 48.1484 19.4766 49.2031 19.4766C50.2969 19.4766 51.2344 19.6979 52.0156 20.1406C52.8099 20.5833 53.474 21.2279 54.0078 22.0742C54.5417 22.9076 54.9583 23.9232 55.2578 25.1211C55.5703 26.306 55.7786 27.6471 55.8828 29.1445V31.7812C55.7656 33.2656 55.5508 34.6003 55.2383 35.7852C54.9388 36.9701 54.5221 37.9792 53.9883 38.8125C53.4544 39.6458 52.7904 40.2839 51.9961 40.7266C51.2018 41.1693 50.2578 41.3906 49.1641 41.3906C48.1224 41.3906 47.1719 41.1888 46.3125 40.7852C45.4531 40.3685 44.7044 39.75 44.0664 38.9297C43.4414 38.0964 42.9596 37.0612 42.6211 35.8242C42.2826 34.5742 42.1133 33.1159 42.1133 31.4492ZM45.5703 29.4766V31.4492C45.5703 32.6211 45.6549 33.6432 45.8242 34.5156C45.9935 35.375 46.2604 36.0911 46.625 36.6641C46.9896 37.224 47.4518 37.6406 48.0117 37.9141C48.5846 38.1875 49.2682 38.3242 50.0625 38.3242C51.026 38.3242 51.8138 38.0898 52.4258 37.6211C53.0378 37.1523 53.526 36.5339 53.8906 35.7656C54.2682 34.9844 54.5677 34.1445 54.7891 33.2461V27.6992C54.6589 27.0352 54.4701 26.3971 54.2227 25.7852C53.9753 25.1602 53.6628 24.6068 53.2852 24.125C52.9206 23.6302 52.4714 23.2396 51.9375 22.9531C51.4167 22.6667 50.8047 22.5234 50.1016 22.5234C49.3073 22.5234 48.6172 22.6667 48.0312 22.9531C47.4583 23.2396 46.9896 23.6693 46.625 24.2422C46.2734 24.8151 46.0065 25.5378 45.8242 26.4102C45.6549 27.2826 45.5703 28.3047 45.5703 29.4766ZM73.3828 36.1172V19.8672H76.8398V41H73.5586L73.3828 36.1172ZM74.0273 31.6641L75.3945 31.625C75.3945 33.0312 75.2708 34.3333 75.0234 35.5312C74.7891 36.7161 74.3984 37.7448 73.8516 38.6172C73.3177 39.4896 72.6081 40.1732 71.7227 40.668C70.8372 41.1497 69.75 41.3906 68.4609 41.3906C67.5885 41.3906 66.7943 41.2409 66.0781 40.9414C65.375 40.6419 64.763 40.1797 64.2422 39.5547C63.7344 38.9297 63.3372 38.1159 63.0508 37.1133C62.7773 36.1107 62.6406 34.9062 62.6406 33.5V19.8672H66.0781V33.5391C66.0781 34.4896 66.1628 35.2773 66.332 35.9023C66.5013 36.5143 66.7292 37.0026 67.0156 37.3672C67.3021 37.7188 67.6211 37.9661 67.9727 38.1094C68.3242 38.2526 68.6823 38.3242 69.0469 38.3242C70.2708 38.3242 71.2474 38.0312 71.9766 37.4453C72.7057 36.8464 73.2266 36.0456 73.5391 35.043C73.8646 34.0273 74.0273 32.901 74.0273 31.6641ZM85.4922 23.1875V41H82.0352V19.8672H85.375L85.4922 23.1875ZM90.7461 19.75L90.7656 23.1094C90.4792 23.0443 90.2188 23.0052 89.9844 22.9922C89.763 22.9661 89.5026 22.9531 89.2031 22.9531C88.5521 22.9531 87.9792 23.0833 87.4844 23.3438C87.0026 23.6042 86.5859 23.9688 86.2344 24.4375C85.8828 24.9062 85.6029 25.4661 85.3945 26.1172C85.1862 26.7552 85.043 27.4583 84.9648 28.2266L84.0664 28.8125C84.0664 27.5365 84.1641 26.3385 84.3594 25.2188C84.5677 24.099 84.8867 23.1094 85.3164 22.25C85.7461 21.3776 86.293 20.7005 86.957 20.2188C87.6341 19.724 88.4414 19.4766 89.3789 19.4766C89.5872 19.4766 89.8411 19.5091 90.1406 19.5742C90.4531 19.6263 90.6549 19.6849 90.7461 19.75ZM140.609 12.5625H148.559C150.408 12.5625 151.957 12.888 153.207 13.5391C154.47 14.1901 155.421 15.1536 156.059 16.4297C156.71 17.6927 157.035 19.2487 157.035 21.0977C157.035 22.3997 156.82 23.5911 156.391 24.6719C155.961 25.7396 155.336 26.651 154.516 27.4062C153.695 28.1484 152.699 28.7018 151.527 29.0664L150.551 29.4766H143.461L143.422 26.4102H148.52C149.613 26.4102 150.525 26.1758 151.254 25.707C151.983 25.2253 152.53 24.5807 152.895 23.7734C153.259 22.9661 153.441 22.0742 153.441 21.0977C153.441 20.0039 153.279 19.0469 152.953 18.2266C152.628 17.4062 152.107 16.7747 151.391 16.332C150.688 15.8763 149.743 15.6484 148.559 15.6484H144.203V41H140.609V12.5625ZM154.262 41L148.598 28.1094L152.328 28.0898L158.109 40.7656V41H154.262ZM180.434 12.5625V41H176.82L165.434 19.0664V41H161.84V12.5625H165.434L176.879 34.5547V12.5625H180.434ZM193.09 41H188.246L188.285 37.9336H193.09C194.796 37.9336 196.182 37.6081 197.25 36.957C198.318 36.293 199.105 35.3164 199.613 34.0273C200.121 32.7253 200.375 31.1172 200.375 29.2031V24.3398C200.375 22.8294 200.232 21.5273 199.945 20.4336C199.659 19.3398 199.229 18.4414 198.656 17.7383C198.083 17.0352 197.361 16.5143 196.488 16.1758C195.616 15.8242 194.594 15.6484 193.422 15.6484H188.148V12.5625H193.422C195.023 12.5625 196.469 12.8164 197.758 13.3242C199.047 13.819 200.154 14.5677 201.078 15.5703C202.003 16.5599 202.706 17.7904 203.188 19.2617C203.682 20.7331 203.93 22.4388 203.93 24.3789V29.2031C203.93 31.1432 203.682 32.849 203.188 34.3203C202.706 35.7917 201.996 37.0221 201.059 38.0117C200.121 39.0013 198.982 39.75 197.641 40.2578C196.312 40.7526 194.796 41 193.09 41ZM190.238 12.5625V41H186.645V12.5625H190.238Z" fill="white"/>
</g>
<g filter="url(#filter1_d_363_33)">
<path d="M119.973 0.0742569C120.088 0.155797 121.38 0.940617 122.972 1.89871C123.453 2.18919 124.135 2.60199 124.488 2.81603C124.841 3.03007 125.589 3.48363 126.152 3.81998C126.713 4.16143 127.596 4.69144 128.113 5.00741C128.631 5.31828 129.52 5.85848 130.091 6.20502C130.661 6.54647 131.61 7.12234 132.2 7.47908C134.18 8.67669 135.044 9.20161 136.286 9.95075C138.003 10.9853 137.868 10.8885 137.944 11.1178C138.069 11.4847 138.03 11.5765 137.341 12.5142C137.005 12.9728 136.702 13.3754 136.665 13.4162C136.626 13.457 134.925 13.8545 132.167 14.4558C126.874 15.6178 127.401 15.4955 127.414 15.5821C127.421 15.6229 127.566 16.2701 127.737 17.0243C127.909 17.7837 128.037 18.4156 128.024 18.436C128.011 18.4564 127.695 18.5481 127.322 18.6347C125.879 18.9864 124.468 19.496 122.774 20.2757C122.023 20.6223 120.095 21.6007 119.963 21.7078C119.617 21.9779 119.409 22.4773 119.406 23.0532C119.406 23.2468 119.518 24.5413 119.657 25.9274C119.795 27.3136 119.986 29.2706 120.085 30.2745C120.24 31.8595 120.276 32.1397 120.365 32.4251C120.527 32.9602 120.721 33.2151 121.268 33.6177C123.845 35.5186 126.165 37.608 127.84 39.5395C128.1 39.8402 128.304 40.044 128.35 40.044C128.486 40.044 129.211 39.6363 129.497 39.4019C130.011 38.9789 130.446 38.4234 130.773 37.7762C130.829 37.659 130.961 37.3175 131.066 37.0168C131.224 36.548 131.27 36.4563 131.369 36.39C131.63 36.2218 131.794 36.3951 132.144 37.2156C132.493 38.0412 132.773 39.0808 132.945 40.1969C133.03 40.7422 133.03 40.8237 132.974 41.9551C132.968 42.0927 132.935 42.8979 132.905 43.7337L132.846 45.2625L132.714 45.4919C131.841 47.0157 131.076 49.5791 130.667 52.3514C130.618 52.6878 130.565 53.0496 130.549 53.1515C130.486 53.5286 130.074 53.9261 129.672 53.9924C129.451 54.0281 129.141 53.9363 128.888 53.758C128.779 53.6815 128.406 53.335 128.064 52.9884C124.999 49.9154 122.619 47.7954 119.874 45.6702C114.051 41.1703 108.181 38.1176 102.209 36.4766C101.893 36.39 101.141 36.2065 100.538 36.0689C99.8298 35.911 99.4178 35.7937 99.3717 35.7428C99.3322 35.702 99.1904 35.4829 99.0553 35.2535C98.6664 34.591 98.5049 33.9846 98.5049 33.1896C98.5082 32.4863 98.6368 31.9206 98.9334 31.3244C99.2761 30.6364 99.4376 29.9637 99.464 29.1381C99.5101 27.706 99.1575 26.274 98.4522 25.005C98.2677 24.6687 98.2644 24.6636 98.2116 24.1387C98.1161 23.2417 98.06 22.2887 98.0205 20.9535C97.9051 17.1772 98.2808 13.3601 99.052 10.3839C99.1443 10.0323 99.2333 9.72142 99.2465 9.69085C99.3124 9.56344 100.492 8.36583 101.188 7.7237C104.454 4.69654 107.828 2.67843 110.999 1.84774C111.467 1.72543 112.258 1.58274 112.831 1.51139C113.418 1.44514 115.161 1.47572 115.623 1.56745C115.866 1.61332 115.979 1.60313 116.526 1.49101C118.068 1.16995 119.142 0.701091 119.706 0.109928C119.841 -0.0327664 119.821 -0.0276677 119.973 0.0742569ZM119.666 1.53687C119.185 1.87832 118.005 2.38285 117.386 2.51535C117.116 2.57141 117.116 2.60199 117.409 2.8517C117.56 2.97911 118.015 3.37152 118.424 3.72316C118.833 4.0697 120.187 5.23164 121.439 6.30695C122.689 7.37715 123.76 8.28938 123.822 8.33525C123.891 8.38621 123.928 8.44736 123.918 8.49833C123.911 8.5391 123.69 9.0793 123.427 9.70104L122.949 10.8222L121.601 11.7446C120.859 12.2542 119.742 13.0187 119.116 13.4417C117.063 14.8431 116.575 15.1795 115.573 15.8624C115.029 16.2344 114.453 16.6268 114.291 16.7338C114.126 16.846 114.018 16.9377 114.047 16.9479C114.103 16.9632 114.631 16.8561 118.523 16.0408C123.977 14.8941 125.632 14.5476 127.059 14.252C127.866 14.0838 129.178 13.8086 129.975 13.6404C130.773 13.4723 132.309 13.1512 133.386 12.927C134.464 12.7078 135.561 12.4785 135.822 12.4224L136.293 12.3205L136.55 11.974C136.692 11.7854 136.81 11.6172 136.81 11.6019C136.814 11.5866 136.366 11.3013 135.815 10.97C135.268 10.6387 134.398 10.1087 133.881 9.79787C132.48 8.9468 131.297 8.23332 130.008 7.4536C129.372 7.07138 128.38 6.47003 127.8 6.11839C127.22 5.76675 126.294 5.20616 125.74 4.8749C125.187 4.53855 124.343 4.02383 123.862 3.73335C123.381 3.44286 122.431 2.87209 121.753 2.45929C121.074 2.05159 120.391 1.6388 120.237 1.54197C120.082 1.44514 119.947 1.3687 119.937 1.3636C119.923 1.3636 119.805 1.44004 119.666 1.53687ZM110.152 3.67729C108.883 3.91172 107.621 4.36528 106.546 4.97683C105.554 5.54251 104.658 6.21012 102.918 7.67274C101.817 8.60025 100.258 10.0221 100.057 10.2871C100.018 10.333 100.229 11.0974 100.525 11.9892C101.296 14.2978 102.183 15.9337 103.303 17.1313C103.481 17.3199 103.626 17.483 103.626 17.4983C103.626 17.5085 103.584 17.855 103.531 18.2678C103.132 21.351 103.178 24.7349 103.646 27.1353C103.87 28.2768 104.15 29.1534 104.622 30.1726C104.75 30.4478 104.849 30.6771 104.842 30.6873C104.836 30.6975 104.658 30.7689 104.45 30.8453C103.429 31.2224 102.193 32.1194 101.375 33.0724C100.96 33.5565 100.248 34.6828 100.304 34.7694C100.311 34.7796 100.568 34.8509 100.875 34.9223C102.812 35.3759 104.915 36.0333 106.747 36.7569C107.202 36.9404 107.598 37.0882 107.624 37.0882C107.65 37.0882 107.753 36.8996 107.851 36.6652C108.731 34.6267 109.987 33.2049 111.463 32.5729C111.49 32.5576 111.424 32.4098 111.292 32.1805C110.363 30.6007 109.578 28.18 109.031 25.2089C108.909 24.5464 108.702 23.1551 108.702 23.0124C108.702 22.9767 108.797 23.3793 108.913 23.9144C109.45 26.3912 110.211 28.659 111.032 30.2338C111.454 31.039 112.198 32.1194 112.914 32.9501L113.161 33.2405L113.016 33.2813C111.694 33.6533 111.091 33.9489 110.396 34.5707C109.954 34.9631 109.638 35.3402 109.259 35.9161C108.972 36.3594 108.471 37.3226 108.471 37.4347C108.471 37.4602 108.593 37.5316 108.741 37.5927C109.124 37.7558 110.58 38.4591 111.289 38.8311C113.362 39.9064 115.962 41.4913 117.788 42.7909C118.028 42.9641 118.414 43.2342 118.645 43.4024C119.198 43.7897 121.027 45.2065 121.792 45.8333C123.928 47.5813 125.951 49.4313 128.36 51.8418C128.759 52.2393 129.135 52.6062 129.197 52.6572C129.309 52.7438 129.662 52.8254 129.662 52.7642C129.662 52.7438 129.623 52.5858 129.576 52.4126C129.527 52.2393 129.405 51.7195 129.3 51.2557C128.143 46.1136 126.877 43.3566 124.406 40.5995C123.809 39.937 122.936 39.0706 121.785 38.0004C120.517 36.8232 119.762 36.2167 118.572 35.4064C118.355 35.2586 118.164 35.121 118.147 35.0956C118.134 35.0752 118.286 35.1109 118.49 35.1771C120.194 35.7377 122.392 37.2818 124.801 39.6108C125.833 40.6097 127.187 42.0621 128.074 43.117L128.476 43.5961L128.634 43.5553C129.573 43.2852 130.753 42.429 131.508 41.471C131.834 41.0582 132.167 40.5027 132.167 40.3804C132.164 40.0644 131.663 38.1584 131.58 38.1584C131.567 38.1584 131.488 38.3011 131.409 38.4744C130.789 39.7892 129.649 40.8645 128.482 41.2416C128.097 41.3639 128.057 41.3537 127.833 41.0531C126.528 39.3254 124.508 37.3328 122.455 35.7428C121.7 35.1618 121.509 35.0242 120.569 34.3872C120.177 34.1171 120.068 34.0203 119.917 33.796C119.614 33.3374 119.574 33.1437 119.38 31.146C119.287 30.1981 119.08 28.0781 118.915 26.4422C118.744 24.7043 118.622 23.308 118.622 23.0837C118.622 22.1053 118.971 21.1676 119.511 20.6936C119.61 20.607 120.256 20.2502 120.945 19.8986C122.88 18.915 123.961 18.4207 125.048 18.0283C125.292 17.9416 125.503 17.855 125.516 17.8448C125.536 17.8244 125.18 16.1223 125.14 16.0662C125.131 16.0509 123.664 16.3618 121.881 16.7593C120.098 17.1517 117.623 17.697 116.381 17.9722L114.123 18.4717L113.447 18.0436C113.075 17.804 112.752 17.6002 112.729 17.5849C112.709 17.5696 112.689 17.5339 112.689 17.5085C112.689 17.4779 112.894 17.0243 113.141 16.4994L113.596 15.5413L114.189 15.1591C115.046 14.6036 116.203 13.8494 118.671 12.2441C119.867 11.4643 121.205 10.598 121.647 10.3126L122.448 9.79277L122.626 9.37488C122.725 9.14555 122.807 8.9366 122.807 8.91112C122.807 8.74804 121.357 7.4485 120.306 6.67388C117.89 4.8851 115.52 3.89643 112.937 3.58556C112.521 3.5346 110.577 3.60085 110.152 3.67729ZM99.3948 12.5244C98.9433 14.731 98.7521 17.1262 98.7917 20.1432C98.8114 21.6007 98.8609 22.671 98.9564 23.6698C98.996 24.0928 99.0092 24.1438 99.1674 24.4495C99.576 25.2598 99.932 26.2434 100.09 27.0078C100.14 27.2525 100.192 27.4563 100.206 27.4563C100.222 27.4563 100.232 27.1047 100.232 26.6766C100.232 25.8408 100.242 25.6166 100.318 24.3731C100.413 22.8136 100.631 21.1472 100.907 19.812C101.039 19.18 101.26 18.3392 101.356 18.0996L101.418 17.9416L101.247 17.6155C100.673 16.5147 100.008 14.4915 99.6354 12.7027C99.5101 12.1167 99.5134 12.1167 99.4936 12.1167C99.4838 12.1167 99.4376 12.3001 99.3948 12.5244ZM130.506 44.2178C129.768 44.9313 129.511 45.2676 129.375 45.6906C129.29 45.9556 129.283 46.027 129.283 46.5417C129.286 47.2807 129.372 47.8718 129.682 49.309C129.919 50.425 130.015 50.792 129.979 50.4658C129.969 50.3792 129.942 50.0122 129.919 49.6402C129.804 47.7342 130.203 45.6957 131.017 44.0191C131.251 43.54 131.274 43.4738 131.201 43.5451C131.178 43.5655 130.865 43.8713 130.506 44.2178Z" fill="white"/>
</g>
<defs>
<filter id="filter0_d_363_33" x="0.0664062" y="11" width="207.863" height="38.3906" filterUnits="userSpaceOnUse" color-interpolation-filters="sRGB">
<feFlood flood-opacity="0" result="BackgroundImageFix"/>
<feColorMatrix in="SourceAlpha" type="matrix" values="0 0 0 0 0 0 0 0 0 0 0 0 0 0 0 0 0 0 127 0" result="hardAlpha"/>
<feOffset dy="4"/>
<feGaussianBlur stdDeviation="2"/>
<feComposite in2="hardAlpha" operator="out"/>
<feColorMatrix type="matrix" values="0 0 0 0 0 0 0 0 0 0 0 0 0 0 0 0 0 0 0.25 0"/>
<feBlend mode="normal" in2="BackgroundImageFix" result="effect1_dropShadow_363_33"/>
<feBlend mode="normal" in="SourceGraphic" in2="effect1_dropShadow_363_33" result="shape"/>
</filter>
<filter id="filter1_d_363_33" x="94" y="0" width="48" height="62" filterUnits="userSpaceOnUse" color-interpolation-filters="sRGB">
<feFlood flood-opacity="0" result="BackgroundImageFix"/>
<feColorMatrix in="SourceAlpha" type="matrix" values="0 0 0 0 0 0 0 0 0 0 0 0 0 0 0 0 0 0 127 0" result="hardAlpha"/>
<feOffset dy="4"/>
<feGaussianBlur stdDeviation="2"/>
<feComposite in2="hardAlpha" operator="out"/>
<feColorMatrix type="matrix" values="0 0 0 0 0 0 0 0 0 0 0 0 0 0 0 0 0 0 0.25 0"/>
<feBlend mode="normal" in2="BackgroundImageFix" result="effect1_dropShadow_363_33"/>
<feBlend mode="normal" in="SourceGraphic" in2="effect1_dropShadow_363_33" result="shape"/>
</filter>
</defs>
</svg>
